HIERARCHY
ROOT Bip001_Pelvis
{
  OFFSET 2.62766 95.5349 -9.95198
  CHANNELS 6 Xposition Yposition Zposition Zrotation Xrotation Yrotation
  JOINT Bip001_Spine
  {
    OFFSET 1.44608e-005 10.4157 -0.0118244
    CHANNELS 3 Zrotation Xrotation Yrotation
    JOINT Bip001_L_Thigh
    {
      OFFSET 11.2582 -10.4157 0.0118432
      CHANNELS 3 Zrotation Xrotation Yrotation
      JOINT Bip001_L_Calf
      {
        OFFSET -0.720717 -44.8687 0.366937
        CHANNELS 3 Zrotation Xrotation Yrotation
        JOINT Bip001_L_Foot
        {
          OFFSET -0.664439 -41.3745 -3.62995
          CHANNELS 3 Zrotation Xrotation Yrotation
          JOINT Bip001_L_Toe0
          {
            OFFSET 0.0541047 -10.4146 13.4033
            CHANNELS 3 Zrotation Xrotation Yrotation
            End Site
            {
              OFFSET -1.04503e-005 0 7.70137
            }
          }
        }
      }
    }
    JOINT Bip001_R_Thigh
    {
      OFFSET -11.2582 -10.4156 0.0118122
      CHANNELS 3 Zrotation Xrotation Yrotation
      JOINT Bip001_R_Calf
      {
        OFFSET 0.72059 -44.8687 0.36676
        CHANNELS 3 Zrotation Xrotation Yrotation
        JOINT Bip001_R_Foot
        {
          OFFSET 0.664321 -41.3745 -3.62979
          CHANNELS 3 Zrotation Xrotation Yrotation
          JOINT Bip001_R_Toe0
          {
            OFFSET -0.05417 -10.4146 13.4033
            CHANNELS 3 Zrotation Xrotation Yrotation
            End Site
            {
              OFFSET -1.04873e-005 0 7.70137
            }
          }
        }
      }
    }
    JOINT Bip001_Spine1
    {
      OFFSET 1.90638e-005 14.8539 1.10727
      CHANNELS 3 Zrotation Xrotation Yrotation
      JOINT Bip001_Spine2
      {
        OFFSET 2.28934e-005 14.7848 -1.7233
        CHANNELS 3 Zrotation Xrotation Yrotation
        JOINT Bip001_Neck
        {
          OFFSET 2.24514e-005 15.6905 -0.498826
          CHANNELS 3 Zrotation Xrotation Yrotation
          JOINT Bip001_L_Clavicle
          {
            OFFSET 6.17691 -0.000591152 0.00852867
            CHANNELS 3 Zrotation Xrotation Yrotation
            JOINT Bip001_L_UpperArm
            {
              OFFSET 11.773 -0.0611878 0.00197697
              CHANNELS 3 Zrotation Xrotation Yrotation
              JOINT Bip001_L_Forearm
              {
                OFFSET 26.4515 0.0817566 -2.1958
                CHANNELS 3 Zrotation Xrotation Yrotation
                JOINT Bip001_L_Hand
                {
                  OFFSET 32.8677 0.156743 1.67112
                  CHANNELS 3 Zrotation Xrotation Yrotation
                  JOINT Bip001_L_Finger0
                  {
                    OFFSET 6.16268 -2.25225 6.01675
                    CHANNELS 3 Zrotation Xrotation Yrotation
                    End Site
                    {
                      OFFSET 4.30499 -1.46662 0.618149
                    }
                  }
                  JOINT Bip001_L_Finger1
                  {
                    OFFSET 11.2958 -0.718372 -0.201963
                    CHANNELS 3 Zrotation Xrotation Yrotation
                    End Site
                    {
                      OFFSET 6.31953 -0.405162 -0.0802303
                    }
                  }
                }
              }
            }
          }
          JOINT Bip001_R_Clavicle
          {
            OFFSET -6.17691 -0.000574027 0.00851164
            CHANNELS 3 Zrotation Xrotation Yrotation
            JOINT Bip001_R_UpperArm
            {
              OFFSET -11.773 -0.0611516 0.00194365
              CHANNELS 3 Zrotation Xrotation Yrotation
              JOINT Bip001_R_Forearm
              {
                OFFSET -26.4514 0.0822335 -2.19736
                CHANNELS 3 Zrotation Xrotation Yrotation
                JOINT Bip001_R_Hand
                {
                  OFFSET -32.8678 0.156816 1.67144
                  CHANNELS 3 Zrotation Xrotation Yrotation
                  JOINT Bip001_R_Finger0
                  {
                    OFFSET -6.16272 -2.25224 6.01671
                    CHANNELS 3 Zrotation Xrotation Yrotation
                    End Site
                    {
                      OFFSET -4.30501 -1.46661 0.618135
                    }
                  }
                  JOINT Bip001_R_Finger1
                  {
                    OFFSET -11.2958 -0.718342 -0.201994
                    CHANNELS 3 Zrotation Xrotation Yrotation
                    End Site
                    {
                      OFFSET -6.31954 -0.405145 -0.0802477
                    }
                  }
                }
              }
            }
          }
          JOINT Bip001_Head
          {
            OFFSET 1.11782e-005 11.4912 2.09908
            CHANNELS 3 Zrotation Xrotation Yrotation
            End Site
            {
              OFFSET 2.95145e-005 21.2823 -2.83069e-005
            }
          }
        }
      }
    }
  }
}
MOTION
Frames:	9
Frame Time:	0.0333333
-1.90569 95.681 -3.00654 0.341187 -0.350927 8.89786 0.0714883 0.302251 0.157471 -4.13389 1.03326 4.54469 0.00368487 11.1822 -0.0378421 11.0492 -10.2366 -13.2132 -4.32631e-007 -4.08942e-007 4.36221e-007 -2.68054 -12.8127 -2.24343 -0.106826 33.9358 0.576843 4.79616 -23.9625 -8.0141 4.31427e-007 1.47477e-008 2.03453e-007 0.151161 0.59982 0.314367 0.151205 0.599802 0.314379 -1.39219 -4.71095 3.36113 -25.9677 11.7576 -15.2468 -43.2904 19.1112 5.84423 -2.10136 0.492168 -21.8129 4.76656 9.04337 -3.20749 -1.59028e-015 -3.18055e-015 -6.36111e-015 -1.59028e-015 -3.18056e-015 -0 26.0378 7.96339 8.42275 48.8315 46.5797 -8.9255 -1.4356 -2.09269 24.6073 0.366572 -2.90913 3.042 -1.59028e-015 0 -1.59028e-015 -3.18055e-015 0 7.95139e-016 0.812697 2.8103 2.68878 
-1.76216 95.669 -3.09755 0.476975 -0.238519 8.63041 0.0542661 0.30225 0.21586 -4.43856 0.910026 4.40118 0.00329435 11.1822 -0.0358284 11.338 -9.99088 -12.8478 -4.32631e-007 -4.08942e-007 4.36221e-007 -2.99769 -13.2341 -1.92121 -0.111764 34.3407 0.579614 5.64853 -23.8935 -6.97456 4.31427e-007 1.47477e-008 2.03453e-007 0.107274 0.60234 0.431555 0.107667 0.602361 0.431557 -2.00248 -4.69525 3.02609 -25.5397 11.6443 -15.0835 -43.0933 19.5402 5.69788 -2.07033 0.459617 -21.4055 4.38521 8.87145 -3.15082 1.76556e-031 -3.18055e-015 3.18055e-015 -1.59028e-015 0 3.18055e-015 26.5327 8.0191 8.63897 48.5781 46.8595 -8.68807 -1.43176 -2.09093 24.7126 -0.155963 -3.31686 3.16379 4.77083e-015 -6.36111e-015 -0 4.77083e-015 -3.18056e-015 -0 1.01462 2.99138 2.2547 
-1.60973 95.6436 -3.19871 0.468357 -0.288224 7.9285 0.0360075 0.322594 0.280673 -4.64053 0.912363 4.34535 0.00188787 11.1821 -0.028576 12.1392 -9.09077 -12.3334 -4.32631e-007 -4.08942e-007 4.36221e-007 -3.04012 -13.6284 -1.19527 -0.117361 34.6985 0.582109 6.15293 -23.4273 -6.29092 4.31427e-007 1.47477e-008 2.03453e-007 0.0687866 0.645364 0.561326 0.0686155 0.6453 0.561331 -2.28971 -4.29847 2.30897 -25.3217 10.962 -14.6074 -43.0653 19.5222 5.6496 -2.02865 0.424498 -20.883 4.02022 9.17699 -2.99971 -3.18055e-015 9.54166e-015 -0 -3.18055e-015 1.27222e-014 -3.18055e-015 26.8644 8.0027 9.51638 47.853 45.9504 -8.23944 -1.41227 -2.08689 24.9521 0.208058 -2.82261 3.4228 -1.59028e-015 3.18055e-015 -0 -1.59028e-015 0 7.95139e-016 0.931988 2.66507 1.66771 
-1.43649 95.5821 -3.38817 0.287645 -0.155554 6.81606 0.0217963 0.298906 0.298551 -4.71591 0.686512 5.00997 -0.000858556 11.2248 -0.0143597 13.2735 -8.06408 -11.8435 -4.32631e-007 -4.08942e-007 4.36221e-007 -2.94516 -14.3921 -0.318372 -0.125665 35.2269 0.580594 6.784 -22.9966 -5.2379 4.31427e-007 1.47477e-008 2.03453e-007 0.0419574 0.595638 0.594274 0.0419503 0.595626 0.593444 -2.98048 -4.01395 1.06536 -24.572 10.1146 -13.5807 -43.2489 18.7204 5.96437 -2.00476 0.403823 -20.5411 3.52755 10.2393 -3.05203 -1.59028e-015 9.54166e-015 -3.18055e-015 8.82782e-031 1.59028e-014 -3.18055e-015 27.4877 8.28826 10.7227 46.2966 48.0116 -7.04227 -1.37375 -2.08599 25.2624 -0.462829 -4.59432 3.8953 -3.18055e-015 3.18055e-015 -0 -3.18055e-015 0 1.59028e-015 1.36141 2.61113 0.564559 
-1.18172 95.4667 -3.64575 0.104397 -0.0820446 4.93742 0.0434067 0.314281 0.307112 -4.87422 0.421286 7.01269 -0.00365893 11.323 2.61146e-005 14.3436 -7.60576 -11.4657 -4.32631e-007 -4.08942e-007 4.36221e-007 -3.00655 -15.4701 0.457703 -0.13721 36.0489 0.579319 7.61234 -22.3116 -3.3785 4.31427e-007 1.47477e-008 2.03453e-007 0.0853529 0.62871 0.612223 0.0859624 0.628723 0.610023 -4.42641 -3.47177 -0.861833 -23.412 8.86833 -12.0782 -43.4574 17.7597 6.60803 -2.00648 0.403891 -20.5419 3.39491 10.901 -3.01829 3.18055e-015 1.27222e-014 -3.18055e-015 3.18055e-015 1.27222e-014 -3.18055e-015 28.4958 8.60721 12.4956 44.0846 48.9781 -5.12289 -1.26942 -2.10134 26.0263 -0.82126 -5.31964 3.73496 -3.18055e-015 3.18055e-015 7.95139e-016 -3.18055e-015 3.18056e-015 7.95139e-016 2.14483 1.79095 -1.30078 
-0.931066 95.3991 -4.13936 -0.246388 0.278742 1.91565 0.07555 0.346556 0.174266 -5.21698 -0.318316 8.36643 -0.00383471 11.2056 0.000930929 16.2607 -5.41568 -10.2818 -4.32631e-007 -4.08942e-007 4.36221e-007 -2.75619 -17.3554 1.66311 -0.152178 37.0125 0.583533 8.54337 -21.0425 -1.52652 4.31427e-007 1.47477e-008 2.03453e-007 0.150061 0.6932 0.348235 0.150058 0.693266 0.348187 -5.46049 -3.01481 -3.5229 -22.6181 7.42609 -9.7287 -43.6217 16.7621 7.27689 -2.01595 0.41162 -20.6843 3.36841 11.358 -3.04517 -0 -3.18055e-015 -0 1.76556e-031 -3.18056e-015 3.18055e-015 29.2916 9.51128 14.9586 40.7648 48.631 -2.21526 -1.14371 -2.11788 26.9447 -0.754072 -6.0947 4.19165 -3.18055e-015 -6.36111e-015 1.59028e-015 -3.18055e-015 -3.18056e-015 -0 2.91894 0.829481 -3.67509 
-0.629691 95.2642 -4.7111 -0.614865 0.72411 -1.78575 0.103161 0.436468 0.0214679 -5.55959 -1.17997 9.11398 -0.00309213 11.1205 -0.00291215 17.2142 -3.40114 -8.49715 -4.32631e-007 -4.08942e-007 4.36221e-007 -2.11435 -19.7283 3.422 -0.172163 38.322 0.592624 9.13526 -19.8001 -0.32462 4.31427e-007 1.47477e-008 2.03453e-007 0.206201 0.872923 0.0421232 0.206218 0.872942 0.0421019 -7.44858 -2.67243 -6.86477 -20.832 6.0588 -6.73268 -43.8696 16.8032 7.85243 -2.04149 0.435542 -20.9858 3.37643 11.6232 -3.01064 4.77083e-015 -9.54166e-015 -0 3.18055e-015 -1.27222e-014 1.59028e-015 30.7466 10.959 17.8058 37.5503 47.5398 0.792541 -0.908856 -2.14328 28.6551 -1.33451 -4.8099 3.83276 -6.36111e-015 6.36111e-015 1.59028e-015 -6.36111e-015 3.18056e-015 -0 3.61802 0.181664 -6.57463 
-0.312829 95.1586 -5.30545 -1.20949 1.12644 -5.91571 0.197491 0.592151 -0.171022 -5.62998 -2.02522 9.42719 -0.00160368 11.088 -0.0106602 17.8739 -0.918129 -6.51754 -4.32631e-007 -4.08942e-007 4.36221e-007 -1.13436 -22.0136 4.82485 -0.185832 39.1922 0.594087 8.48557 -17.3484 -0.00717237 4.31427e-007 1.47477e-008 2.03453e-007 0.396847 1.18361 -0.344044 0.396835 1.18362 -0.344025 -9.14679 -1.13529 -10.0783 -19.2322 3.83342 -4.33582 -44.0181 17.4062 8.16253 -2.05504 0.444626 -21.1111 3.29479 12.2288 -3.0637 3.18055e-015 0 -1.59028e-015 0 0 -1.59028e-015 31.7933 11.4329 21.1648 35.246 44.9316 3.16962 -0.586572 -2.16654 30.9944 -2.19104 -3.0161 3.97973 -8.82781e-032 -3.18055e-015 -1.59028e-015 1.76556e-031 6.36111e-015 -1.59028e-015 5.80746 -0.827548 -10.444 
0.0507408 95.0812 -5.90537 -2.00198 1.48612 -10.356 0.343632 0.764773 -0.41386 -5.49887 -2.73496 9.78533 0.000409411 11.0783 -0.0211461 18.1929 1.66837 -4.81529 -4.32631e-007 -4.08942e-007 4.36221e-007 -0.364858 -24.0434 4.85371 -0.196622 39.6821 0.57247 7.69464 -14.5639 1.59792 4.31427e-007 1.47477e-008 2.03453e-007 0.69293 1.52693 -0.832058 0.692927 1.52694 -0.832081 -10.3638 0.31125 -13.5784 -18.3661 1.67149 -1.66369 -43.828 18.7098 8.44915 -2.06124 0.447764 -21.1843 3.2486 12.8986 -3.23415 3.18055e-015 1.27222e-014 -3.18055e-015 4.77083e-015 9.54167e-015 -3.18055e-015 32.4121 12.3395 25.0791 33.7351 42.0247 4.38229 -0.179901 -2.17713 33.9389 -3.57362 -1.83757 4.44536 1.76556e-031 3.18055e-015 -3.18055e-015 0 3.18056e-015 -0 7.31466 -2.54968 -13.9929 
